<?xml version="1.0" encoding="UTF-8"?><svg xmlns="http://www.w3.org/2000/svg" viewBox="0 0 591.832 403.612"><defs><style>.cls-1{fill:none;stroke-width:0px;}</style></defs><g id="LEFT_01"><path class="cls-1" d="m591.832,359.207c-15.511,2.323-32.418,5.712-50.353,10.622-34.164,9.354-62.992,21.748-86.125,33.783h136.478v-44.405Z"/></g><g id="LEFT_02"><path class="cls-1" d="m591.832,403.612v-71.387c-14.003,1-33.131,2.67-55.777,5.594-20.042,2.587-42.02,5.425-69.973,11.763-26.843,6.087-45.998,12.416-68.563,19.96-23.25,7.773-53.543,18.804-88.53,34.07h282.843Z"/></g><g id="LEFT_03"><path class="cls-1" d="m0,332.304c35.366-10.164,64.481-11.313,84.177-10.519,30.996,1.25,58.466,8.114,88.06,15.508,25.516,6.375,23.185,7.348,42.482,11.535,22.603,4.904,49.223,10.484,83.218,8.298,6.364-.409,29.287-2.139,57.133-10.337,13.002-3.828,25.64-8.644,42.334-15.005,22.117-8.428,23.738-9.905,34.414-13.366,21.938-7.112,39.885-8.91,49.094-9.781,24.59-2.323,32.36.783,75.167,1.448,15.316.238,27.798.05,35.753-.136v93.664H0v-71.308Z"/></g><g id="LEFT_04"><path class="cls-1" d="m0,260.929c15.64-4.123,40.086-8.698,69.605-6.083,31.66,2.805,55.482,12.668,79.879,22.991,41.768,17.673,44.816,27.092,82.62,39.063,32.385,10.255,50.419,9.762,55.263,9.554,20.326-.874,34.807-6.464,57.569-15.251,34.806-13.437,37.69-20.685,66.965-29.424,13.36-3.988,26.783-7.995,45.021-8.434,24.558-.592,34.996,5.835,70.732,12.139,12.583,2.22,27.488,5.207,47.641,5.74,6.928.183,12.66.051,16.537-.099v112.488H0v-142.683Z"/></g><g id="LEFT_05"><path class="cls-1" d="m0,190.034c32.304-4.014,57.051.307,72.727,4.513,27.898,7.484,48.786,20.428,79.937,39.733,26.611,16.491,24.937,18.312,46.975,30.79,33.216,18.806,51.47,28.839,74.914,27.371,13.853-.868,26.462-6.969,51.68-19.173,25.983-12.574,30.779-19.138,51.64-27.33,7.78-3.055,26.826-10.535,48.383-11.502,48.359-2.17,66.63,30.35,128.585,39.404,16.089,2.351,29.314,2.27,36.991,1.973v127.799H0v-213.578Z"/></g><g id="LEFT_06"><path class="cls-1" d="m0,136.554c3.793-.842,9.305-1.734,15.948-1.609,12.423.233,21.721,3.888,26.664,5.94,28.534,11.843,55.137,28.93,55.138,28.93,38.502,24.73,30.445,17.977,53.739,33.544,21.531,14.389,43.845,27.603,65.112,42.379,3.694,2.566,12.519,8.745,25.658,12.724,0,0,10.577,3.203,21.349,3.603,32.866,1.22,57.087-40.352,112.785-60.426,8.817-3.178,19.783-6.404,33.502-5.982,20.418.629,36.358,9.013,45.03,13.69,11.194,6.037,12.869,9.023,25.751,18.063,18.873,13.245,42.17,29.594,71.44,32.609,8.819.908,22.549,1.056,39.718-4.152v147.746H0V136.554Z"/></g><g id="LEFT_07"><path class="cls-1" d="m0,91.825c10.215.102,25.561,1.525,42.247,8.611,6.266,2.661,12.123,5.867,29.618,18.312,26.2,18.638,29.294,22.974,47.902,36.203,22.184,15.771,21.086,11.995,45.969,29.495,19.408,13.65,23.806,18.571,40.431,28.134,24.011,13.811,34.486,14.849,41.022,14.71,3.827-.082,11.368-.675,28.662-8.8,9.012-4.234,22.315-11.284,55.818-36.508,16.654-12.539,25.874-20.212,42.127-25.996,9.867-3.511,16.413-4.221,21.617-4.168,15.943.163,27.752,7.583,32.949,10.919,5.208,3.343,10.052,8.049,19.74,17.461,9.01,8.753,15.283,15.627,16.753,17.221,12.109,13.132,32.134,30.077,47.707,38.49,9.493,5.128,35.727,17.024,79.271,8.282v159.421H0V91.825Z"/></g><g id="LEFT_08"><path class="cls-1" d="m0,66.507c4.806-.576,11.804-.99,20.066.118,13.572,1.82,23.513,6.803,35.5,13.726,23.229,13.418,28.916,19.556,55.305,36.602,20.445,13.206,19.964,11.415,30.117,19.091,6.54,4.944,16.883,14.247,37.303,32.651,8.585,7.738,16.466,14.905,28.849,21.067,7.952,3.956,13.434,5.345,18.605,5.769,8.172.669,14.584-1.154,20.297-2.835,8.97-2.639,14.973-5.94,21.204-9.298,26.771-14.429,22.739-11.052,33.903-17.689,19.832-11.789,36.503-24.794,37.418-25.513,9.49-7.447,15.42-12.944,26.76-17.915,11.968-5.247,18.946-5.078,20.864-4.989,10.137.47,17.461,5.126,23.131,8.731,3.123,1.986,8.328,5.655,17.689,15.988,7.244,7.997,10.983,13.36,18.369,23.358,11.14,15.08,16.71,22.619,22.386,29.121,6.554,7.508,15.798,18.096,30.338,27.699,21.768,14.376,42.521,18.034,48.515,18.952,19.124,2.927,35.092.588,45.214-1.762v164.234H0V66.507Z"/></g><g id="LEFT_09"><path class="cls-1" d="m0,47.579c6.233-1.275,15.594-2.445,26.609-.809,11.313,1.681,19.562,5.732,35.599,13.765,11.469,5.745,8.572,5.135,28.834,15.937,1.53.816,13.605,7.247,28.495,15.343,7.136,3.88,10.188,5.569,14.348,8.458,5.697,3.956,9.556,7.537,17.042,14.539,6.027,5.637,15.332,14.345,23.028,21.399,9.26,8.487,13.954,12.529,21.348,16.205,4.584,2.279,7.166,2.963,8.697,3.275,4.603.936,10.953,1.034,21.023-3.023,8.079-3.255,11.48-6.336,20.938-12.71,0,0,11.79-7.945,27.759-16.627,16.064-8.733,16.308-6.016,28.687-13.349,17.492-10.361,23.6-19.057,43.41-27.378,5.912-2.483,12.472-5.239,21.309-4.735,1.95.111,9.966.72,18.349,5.82,3.527,2.146,5.906,4.349,8.484,6.906,11.345,11.254,19.023,21.916,19.435,22.493,10.24,14.347,17.942,25.711,19.237,27.623,6.103,9.004,14.988,22.091,25.946,37.488,7.064,9.926,11.423,15.8,18.244,22.802,2.634,2.704,8.263,8.272,15.393,13.734,7.855,6.018,24.957,18.822,50.467,23.77,20.674,4.011,38.242,1.188,49.154-1.603v166.711H0V47.579Z"/></g><g id="LEFT_10"><path class="cls-1" d="m407.497,99.885c-11.024-16.641-4.256-5.672-18.458-26.448-3.766-5.51-6.865-10.118-12.191-15.772-3.854-4.092-7.879-8.365-14.257-12.397-5.024-3.176-14.112-8.922-26.103-8.54-6.659.212-12.064,2.245-16.53,3.926-5.412,2.036-8.748,4.073-12.604,6.268-15.659,8.91-16.281,6.974-29.616,14.739-5.583,3.251-10.747,6.828-21.076,13.982-8.373,5.799-12.559,8.699-15.91,11.571-9.077,7.78-8.656,9.96-18.458,18.458-9.927,8.606-15.158,10.532-17.012,11.158-7.451,2.513-13.671,2.004-15.152,1.86-4.31-.421-9.171-1.731-18.389-7.163-8.965-5.282-13.286-9.299-20.18-14.601,0,0-11.163-8.586-26.93-17.632-11.141-6.392-11.58-5.16-32.578-14.946-20.827-9.707-28.073-14.498-46.146-21.007-7.023-2.529-12.141-4.043-18.527-4.89C15.918,36.929,6.281,38.341,0,39.758v363.854h591.832v-166.711c-10.912,2.791-28.48,5.613-49.154,1.603-25.51-4.949-42.612-17.753-50.467-23.77-7.807-5.981-13.764-12.051-15.393-13.734-2.174-2.246-7.619-8.022-18.244-22.802-6.822-9.49-11.658-16.957-13.699-20.119-19.33-29.939-24.592-38.895-37.378-58.194Z"/></g><g id="LEFT_11"><path class="cls-1" d="m407.497,99.885c12.785,19.299,18.048,28.255,37.378,58.194,2.041,3.162,6.876,10.629,13.699,20.119,10.625,14.78,16.07,20.556,18.244,22.802,1.629,1.683,7.586,7.753,15.393,13.734,7.855,6.018,24.957,18.822,50.467,23.77,20.674,4.011,38.242,1.188,49.154-1.603v166.711H0V38.74c4.03-1.04,8.376-1.933,13.019-2.582,6.329-.884,24.612-2.895,47.52,2.987,7.487,1.922,12.931,4.036,17.307,5.752,13.974,5.479,17.128,8.82,33.353,15.765,9.171,3.926,7.261,2.472,19.089,7.4,11.483,4.784,16.7,6.693,27.133,10.51,1.796.657,4.979,1.801,9.33,2.359,2.678.344,7.47.913,12.869-.643,4.291-1.237,7.187-3.305,9.116-4.719,13.265-9.728,20.483-16.944,20.484-16.944,18.103-18.097,17.525-18.623,23.057-23.165,10.029-8.233,22.414-13.942,22.414-13.942,9.015-2.095,23.043-5.805,39.735-12.247,15.169-5.855,18.934-8.715,25.591-9.202,11.18-.818,27.996,5.242,50.814,39.245l36.666,60.571Z"/></g><g id="RIGHT_01"><path class="cls-1" d="m591.832,297.427c-1.742,1.238-4.735,3.333-8.541,5.818,0,0-5.436,3.548-11.28,6.965-7.63,4.46-77.405,42.201-172.881,93.403h192.702v-106.185Z"/></g><g id="RIGHT_02"><path class="cls-1" d="m591.832,259.756c-4.661,4.503-9.78,9.138-15.38,13.808,0,0-9.913,8.267-21.191,16.046-14.293,9.859-90.507,54.69-195.87,114.002h232.441v-143.856Z"/></g><g id="RIGHT_03"><path class="cls-1" d="m591.832,221.451c-5.922,6.872-12.415,13.953-19.518,21.128,0,0-14.231,14.375-31.147,28.429-19.66,16.333-100.187,68.549-214.275,132.604h264.94v-182.161Z"/></g><g id="RIGHT_04"><path class="cls-1" d="m591.832,161.749c-5.779,7.521-12.712,16.383-20.675,26.245-11.26,13.945-18.239,22.558-28.001,33.224,0,0-10.615,11.607-23.627,24.027-20.154,19.239-107.449,81.397-231.679,158.367h303.983v-241.863Z"/></g><g id="RIGHT_05"><path class="cls-1" d="m591.832,120.544c-11.286,15.326-20.948,28.34-28.417,38.364-19.294,25.894-24.667,32.795-31.328,40.738,0,0-12.05,14.359-27.274,30.002-23.094,23.731-109.675,91.232-233.408,173.964h320.427V120.544Z"/></g><g id="RIGHT_06"><path class="cls-1" d="m591.832,87.205c-6.067,8.012-15.675,20.771-27.384,36.64-19.11,25.899-25.083,34.694-36.801,49.787,0,0-15.474,19.931-35.237,42.36-27.733,31.474-113.312,104.211-237.754,187.62h337.176V87.205Z"/></g><g id="RIGHT_07"><path class="cls-1" d="m591.832,59.766c-4.874,6.083-12.881,16.13-22.656,28.658-25.467,32.642-34.803,46.079-54.05,70.46,0,0-15.821,20.044-36.237,44.1-56.212,66.234-233.712,193.455-243.762,200.628h356.704V59.766Z"/></g><g id="RIGHT_08"><path class="cls-1" d="m591.832,39.895c-5.503,5.632-13.581,14.198-22.793,25.162-8.415,10.015-14.038,17.584-17.748,22.524-12.858,17.121-23.656,30.429-45.25,57.043,0,0-18.517,22.859-38.117,45.747-31.414,36.681-126.405,116.459-257.639,213.241h381.547V39.895Z"/></g><g id="RIGHT_09"><path class="cls-1" d="m591.832,29.221c-7.932,5.492-19.812,14.422-32.618,27.195-8.464,8.442-11.798,13.042-31.958,38.033,0,0-16.803,20.829-35.92,44.018,0,0-15.463,18.754-33.012,39.306-25.575,29.951-126.986,115.957-268.778,225.839h402.285V29.221Z"/></g><g id="RIGHT_10"><path class="cls-1" d="m591.832,29.274c-4.286,1.075-10.08,2.844-16.585,5.846-3.699,1.707-11.752,5.716-23.116,15.02-8.241,6.747-13.279,12.23-22.71,22.584-8.419,9.242-10.927,12.655-27.305,31.819-6.818,7.978-7.88,9.138-14.811,17.202-20.44,23.781-36.156,42.726-37.355,44.16-13.971,16.706-80.499,75.678-278.508,237.707h420.39V29.274Z"/></g><g id="RIGHT_11"><path class="cls-1" d="m591.832,45.547c-27.133-2.716-43.587,5.167-49.998,8.817-7.353,4.186-14.915,10.445-16.65,11.88-4.657,3.854-8.385,7.436-20.254,20.349-8.013,8.718-11.873,13.133-25.009,27.812-10.676,11.929-11.008,12.233-16.601,18.541-11.172,12.6-19.239,21.982-19.727,22.547-10.699,12.381-89.344,81.172-286.699,248.119h434.937V45.547Z"/></g><g id="RIGHT_12"><path class="cls-1" d="m591.832,51.181c-14.335,2.307-66.405,11.266-88.333,28.134-.845.65-7.224,5.603-15.389,12.499-7.244,6.118-13.12,11.423-24.131,21.667-15.378,14.308-22.999,21.535-29.457,27.795-15.067,14.606-95.079,83.723-306.056,262.336h463.365V51.181Z"/></g></svg>